<svg id="Layer_1" data-name="Layer 1" xmlns="http://www.w3.org/2000/svg" viewBox="0 0 394.79 469.17"><path d="M-166.09,705.14c4.32-10.68,8.19-20.34,12.13-30q39.9-97.56,79.81-195.11c3.33-8.15,1.58-10.63-7.08-9.32-17.39,2.63-34.72,5.63-52.07,8.48-1.15.19-2.29.47-3.44.56-5.86.5-7.41-1.21-5.74-6.88,5.09-17.33,10.32-34.62,15.52-51.92,3.53-11.73,7.1-23.45,10.77-35.57l53.1,5.17c-16.83-51.72-33.46-102.8-50.24-154.39H34.36v5.54c0,91,1.18,182-.36,273C32.72,590.87-3.56,647.4-70.43,683.82c-27.82,15.14-58.09,21.27-89.66,21.32Z" transform="translate(360 -235.97)"/><path d="M-360,236H-195.3c-35.82,43.88-71,87-106.75,130.74L-240,373c-1.21,7.87-2.32,15.34-3.53,22.79q-7.85,48.36-15.75,96.73c-3.8,23.24-7.84,46.44-11.45,69.7-1.45,9.3-2.8,12.56,9.36,10.44,22.88-4,45.82-7.6,68.73-11.46,6.65-1.13,8.33,0,8.15,6.63-.75,27.59-1.61,55.17-2.4,82.76q-.7,23.92-1.33,47.86c0,1.63,0,3.25,0,5.29a162.85,162.85,0,0,1-48.72-11.64c-62.93-25.89-102.64-72-118.48-138.18a162.86,162.86,0,0,1-4.36-37c-.35-92.15-.19-184.29-.19-276.43Z" transform="translate(360 -235.97)"/></svg>